<?xml version="1.0" standalone="no"?>
<!DOCTYPE svg PUBLIC "-//W3C//DTD SVG 20010904//EN"
 "http://www.w3.org/TR/2001/REC-SVG-20010904/DTD/svg10.dtd">
<svg version="1.0" xmlns="http://www.w3.org/2000/svg"
 width="219.000000pt" height="195.000000pt" viewBox="0 0 219.000000 195.000000"
 preserveAspectRatio="xMidYMid meet">

<g transform="translate(0.000000,195.000000) scale(0.100000,-0.100000)"
fill="#000000" stroke="none">
<path d="M705 1691 c-88 -26 -192 -82 -276 -149 -74 -58 -369 -372 -369 -391
0 -16 34 -21 155 -24 l110 -2 -73 -79 c-40 -43 -71 -83 -69 -90 2 -7 46 -13
120 -16 66 -3 121 -10 128 -17 8 -8 1 -22 -28 -55 -60 -67 -93 -109 -93 -119
0 -5 49 -9 110 -9 127 0 124 4 84 -97 -32 -78 -33 -101 -7 -145 53 -92 439
-329 564 -345 51 -7 54 3 63 186 12 254 44 359 125 416 36 25 54 30 117 33 48
3 106 -2 159 -13 72 -15 92 -16 147 -5 73 14 158 53 195 89 77 76 98 214 49
314 -41 85 -83 115 -260 188 -104 42 -139 75 -186 173 -53 112 -68 120 -230
121 -105 1 -139 6 -214 28 -106 33 -227 35 -321 8z"/>
</g>
</svg>
